<svg id="visual" viewBox="0 0 900 200" width="900" height="200" xmlns="http://www.w3.org/2000/svg" xmlns:xlink="http://www.w3.org/1999/xlink" version="1.1"><rect x="0" y="0" width="900" height="200" fill="#001220"></rect><path d="M0 134L15 136.5C30 139 60 144 90 142C120 140 150 131 180 117.8C210 104.7 240 87.3 270 83.7C300 80 330 90 360 99.3C390 108.7 420 117.3 450 123.3C480 129.3 510 132.7 540 117.8C570 103 600 70 630 62.8C660 55.7 690 74.3 720 93.8C750 113.3 780 133.7 810 132.5C840 131.3 870 108.7 885 97.3L900 86L900 0L885 0C870 0 840 0 810 0C780 0 750 0 720 0C690 0 660 0 630 0C600 0 570 0 540 0C510 0 480 0 450 0C420 0 390 0 360 0C330 0 300 0 270 0C240 0 210 0 180 0C150 0 120 0 90 0C60 0 30 0 15 0L0 0Z" fill="#C62368" stroke-linecap="round" stroke-linejoin="miter"></path></svg>